<svg
  width="514"
  height="514"
  viewBox="0 0 514 514"
  fill="none"
  xmlns="http://www.w3.org/2000/svg"
>
<path
    fill-rule="evenodd"
    clip-rule="evenodd"
    d="M325.014 445.08C428.888 407.517 482.643 292.86 445.08 188.986C407.517 85.1124 292.86 31.357 188.986 68.9201C85.1122 106.483 31.3569 221.14 68.92 325.014C106.483 428.888 221.14 482.643 325.014 445.08ZM311.071 406.524C393.651 376.661 436.386 285.509 406.524 202.929C376.661 120.349 285.508 77.6138 202.929 107.476C120.349 137.339 77.6137 228.492 107.476 311.071C137.339 393.651 228.492 436.386 311.071 406.524Z"
    fill="#C4C4C4"
  />
<path
    fill-rule="evenodd"
    clip-rule="evenodd"
    d="M230.728 100.157C221.42 101.728 212.121 104.152 202.929 107.476C158.43 123.568 125.5 157.457 109.265 198.212C90.0161 199.974 78.4466 190.696 72.2253 180.457C92.9976 130.353 133.959 88.8188 188.986 68.92C198.259 65.5668 207.617 62.9413 216.999 61.0142C234.388 74.2587 234.649 89.6505 230.728 100.157Z"
    fill="#D36310"
  />
<circle
    cx="235.324"
    cy="75.0257"
    r="11.5"
    transform="rotate(-19.8811 235.324 75.0257)"
    fill="#D36310"
  />
<circle
    cx="234.063"
    cy="87.7107"
    r="6"
    transform="rotate(-19.8811 234.063 87.7107)"
    fill="#D36310"
  />
<circle
    cx="87.8165"
    cy="196.424"
    r="11.5"
    transform="rotate(-19.8811 87.8165 196.424)"
    fill="#D36310"
  />
<circle
    cx="75.1107"
    cy="206.867"
    r="4"
    transform="rotate(-19.8811 75.1107 206.867)"
    fill="#D36310"
  />
<circle
    cx="250.644"
    cy="88.8278"
    r="4"
    transform="rotate(-113.027 250.644 88.8278)"
    fill="#D36310"
  />
<mask
    id="mask0_19_45"
    style="mask-type:alpha"
    maskUnits="userSpaceOnUse"
    x="56"
    y="56"
    width="402"
    height="402"
  >
<path
      fill-rule="evenodd"
      clip-rule="evenodd"
      d="M325.014 445.08C428.888 407.517 482.643 292.86 445.08 188.986C407.517 85.1124 292.86 31.357 188.986 68.9201C85.1122 106.483 31.3569 221.14 68.92 325.014C106.483 428.888 221.14 482.643 325.014 445.08ZM311.071 406.524C393.651 376.661 436.386 285.509 406.524 202.929C376.661 120.349 285.508 77.6138 202.929 107.476C120.349 137.339 77.6137 228.492 107.476 311.071C137.339 393.651 228.492 436.386 311.071 406.524Z"
      fill="#D36310"
    />
</mask>
<g mask="url(#mask0_19_45)">
<circle
      cx="223.68"
      cy="64.8809"
      r="8"
      transform="rotate(-19.8811 223.68 64.8809)"
      fill="#D36310"
    />
<circle
      cx="76.1726"
      cy="186.279"
      r="8"
      transform="rotate(-19.8811 76.1726 186.279)"
      fill="#D36310"
    />
<circle
      cx="103.403"
      cy="199.826"
      r="6"
      transform="rotate(-19.8811 103.403 199.826)"
      fill="#D36310"
    />
</g>
<circle
    cx="92.0171"
    cy="212.451"
    r="2"
    transform="rotate(-19.8811 92.0171 212.451)"
    fill="#D36310"
  />
<circle
    cx="255.292"
    cy="71.6404"
    r="2"
    transform="rotate(-113.027 255.292 71.6404)"
    fill="#D36310"
  />
<circle
    cx="80.8121"
    cy="219.693"
    r="5"
    transform="rotate(-19.8811 80.8121 219.693)"
    fill="#D36310"
  />
<circle
    cx="263.138"
    cy="82.4311"
    r="5"
    transform="rotate(-113.027 263.138 82.4311)"
    fill="#D36310"
  />
</svg>
