<svg
  width="400"
  height="408"
  viewBox="0 0 400 408"
  fill="none"
  xmlns="http://www.w3.org/2000/svg"
>
<path
    fill-rule="evenodd"
    clip-rule="evenodd"
    d="M200 408C310.457 408 400 318.457 400 208C400 97.5431 310.457 8 200 8C89.5431 8 0 97.5431 0 208C0 318.457 89.5431 408 200 408ZM200 367C287.813 367 359 295.813 359 208C359 120.187 287.813 49 200 49C112.187 49 41 120.187 41 208C41 295.813 112.187 367 200 367Z"
    fill="#C4C4C4"
  />
<path
    fill-rule="evenodd"
    clip-rule="evenodd"
    d="M228.632 51.571C219.344 49.8821 209.775 49 200 49C152.68 49 110.189 69.6709 81.0624 102.476C62.3613 97.5863 54.6366 84.9266 52.2678 73.1827C88.8411 33.1284 141.486 8 200 8C209.86 8 219.554 8.71357 229.032 10.0919C240.88 28.4602 235.891 43.0235 228.632 51.571Z"
    fill="#D36310"
  />
<circle cx="241.5" cy="29.5" r="11.5" fill="#D36310" />
<circle cx="236" cy="41" r="6" fill="#D36310" />
<circle cx="61.5" cy="93.5" r="11.5" fill="#D36310" />
<circle cx="46" cy="99" r="4" fill="#D36310" />
<circle
    cx="251.214"
    cy="47.6894"
    r="4"
    transform="rotate(-93.1462 251.214 47.6894)"
    fill="#D36310"
  />
<mask
    id="mask0"
    style="mask-type:alpha"
    maskUnits="userSpaceOnUse"
    x="0"
    y="8"
    width="400"
    height="400"
  >
<path
      fill-rule="evenodd"
      clip-rule="evenodd"
      d="M200 408C310.457 408 400 318.457 400 208C400 97.5431 310.457 8 200 8C89.5431 8 0 97.5431 0 208C0 318.457 89.5431 408 200 408ZM200 367C287.813 367 359 295.813 359 208C359 120.187 287.813 49 200 49C112.187 49 41 120.187 41 208C41 295.813 112.187 367 200 367Z"
      fill="#D36310"
    />
</mask>
<g mask="url(#mask0)">
<circle cx="234" cy="16" r="8" fill="#D36310" />
<circle cx="54" cy="80" r="8" fill="#D36310" />
<circle cx="75" cy="102" r="6" fill="#D36310" />
</g>
<rect
    x="163.5"
    y="2.5"
    width="73"
    height="54"
    fill="#D36310"
    stroke="#055177"
    stroke-width="5"
  />
<circle cx="60" cy="110" r="2" fill="#D36310" />
<circle
    cx="261.429"
    cy="33.1068"
    r="2"
    transform="rotate(-93.1462 261.429 33.1068)"
    fill="#D36310"
  />
<circle cx="47" cy="113" r="5" fill="#D36310" />
<circle
    cx="265.138"
    cy="45.9225"
    r="5"
    transform="rotate(-93.1462 265.138 45.9225)"
    fill="#D36310"
  />
<path
    opacity="0.71"
    d="M180.069 168.868V170.146H176.793V181H175.335V170.146H172.059V168.868H180.069ZM181.283 174.88C181.283 172.972 181.769 171.454 182.741 170.326C183.725 169.198 185.051 168.634 186.719 168.634C188.423 168.634 189.755 169.198 190.715 170.326C191.687 171.442 192.173 172.96 192.173 174.88C192.173 176.788 191.681 178.312 190.697 179.452C189.725 180.58 188.405 181.144 186.737 181.144C185.093 181.144 183.773 180.574 182.777 179.434C181.781 178.294 181.283 176.776 181.283 174.88ZM182.813 174.88C182.813 176.38 183.167 177.568 183.875 178.444C184.595 179.32 185.549 179.758 186.737 179.758C187.973 179.758 188.927 179.326 189.599 178.462C190.283 177.598 190.625 176.404 190.625 174.88C190.625 173.356 190.283 172.162 189.599 171.298C188.915 170.434 187.955 170.002 186.719 170.002C185.495 170.002 184.535 170.44 183.839 171.316C183.155 172.18 182.813 173.368 182.813 174.88ZM195.884 179.722H198.062C199.562 179.722 200.696 179.26 201.464 178.336C202.232 177.4 202.616 176.236 202.616 174.844C202.616 173.524 202.184 172.414 201.32 171.514C200.468 170.614 199.358 170.164 197.99 170.164H195.884V179.722ZM194.408 168.868H198.008C199.796 168.868 201.26 169.426 202.4 170.542C203.552 171.646 204.128 173.08 204.128 174.844C204.128 176.596 203.594 178.06 202.526 179.236C201.47 180.412 199.988 181 198.08 181H194.408V168.868ZM208.613 176.572H212.915L212.681 175.87L210.791 170.038C210.647 170.554 209.999 172.504 208.847 175.888L208.613 176.572ZM214.391 181L213.329 177.814H208.199L207.119 181H205.553L209.783 168.868H211.799L215.957 181H214.391ZM226.801 168.868L222.643 176.482V181H221.185V176.5L217.063 168.868H218.755L219.673 170.65C220.297 171.85 220.795 172.828 221.167 173.584C221.539 174.34 221.755 174.796 221.815 174.952L221.905 175.168C222.013 174.868 222.775 173.362 224.191 170.65L225.109 168.868H226.801Z"
    fill="#17120E"
  />
<path
    opacity="0.71"
    d="M149.62 211.024H155.188V214H144.724V211.288C146.452 210.104 147.972 208.792 149.284 207.352C150.612 205.912 151.276 204.64 151.276 203.536C151.276 202.864 151.076 202.336 150.676 201.952C150.276 201.552 149.668 201.352 148.852 201.352C147.492 201.352 146.204 201.856 144.988 202.864V199.48C145.516 199.096 146.204 198.768 147.052 198.496C147.9 198.224 148.732 198.088 149.548 198.088C151.18 198.088 152.476 198.52 153.436 199.384C154.412 200.232 154.9 201.424 154.9 202.96C154.9 205.728 153.14 208.416 149.62 211.024ZM167.379 210.976H169.059C170.547 210.976 171.691 210.512 172.491 209.584C173.307 208.656 173.715 207.344 173.715 205.648C173.715 204.208 173.307 203.056 172.491 202.192C171.675 201.312 170.523 200.872 169.035 200.872H167.379V210.976ZM163.587 197.824H169.155C171.587 197.824 173.579 198.576 175.131 200.08C176.683 201.568 177.459 203.424 177.459 205.648C177.459 208.24 176.691 210.28 175.155 211.768C173.635 213.256 171.619 214 169.107 214H163.587V197.824ZM185.874 209.008H184.746C184.154 209.008 183.698 209.136 183.378 209.392C183.058 209.648 182.898 209.976 182.898 210.376C182.898 211.192 183.37 211.6 184.314 211.6C184.81 211.6 185.194 211.448 185.466 211.144C185.738 210.84 185.874 210.424 185.874 209.896V209.008ZM180.186 205.576V202.432C181.146 201.888 182.53 201.616 184.338 201.616C186.066 201.616 187.354 201.992 188.202 202.744C189.05 203.48 189.474 204.632 189.474 206.2V214H186.042V212.512C185.53 213.552 184.522 214.072 183.018 214.072C181.834 214.072 180.906 213.736 180.234 213.064C179.578 212.392 179.25 211.552 179.25 210.544C179.25 209.376 179.674 208.472 180.522 207.832C181.386 207.176 182.658 206.848 184.338 206.848H185.874V206.008C185.874 204.984 185.194 204.472 183.834 204.472C182.522 204.472 181.306 204.84 180.186 205.576ZM195.609 213.808L190.905 201.832H194.721L196.041 205.624C196.377 206.6 196.649 207.44 196.857 208.144C197.081 208.848 197.217 209.312 197.265 209.536L197.337 209.872C197.513 209.232 197.945 207.816 198.633 205.624L199.833 201.832H203.433L199.041 213.64C197.777 217.048 195.849 218.752 193.257 218.752C192.761 218.752 192.313 218.712 191.913 218.632V215.848C192.169 215.912 192.441 215.944 192.729 215.944C194.057 215.944 195.017 215.232 195.609 213.808ZM212.679 202.192V205.192C211.831 204.696 210.839 204.448 209.703 204.448C209.287 204.448 208.967 204.536 208.743 204.712C208.519 204.872 208.407 205.08 208.407 205.336C208.407 205.48 208.447 205.616 208.527 205.744C208.607 205.872 208.735 205.992 208.911 206.104C209.103 206.216 209.279 206.32 209.439 206.416C209.615 206.496 209.847 206.6 210.135 206.728C210.439 206.856 210.679 206.968 210.855 207.064C211.591 207.448 212.183 207.896 212.631 208.408C213.079 208.904 213.303 209.544 213.303 210.328C213.303 211.528 212.871 212.456 212.007 213.112C211.143 213.768 209.999 214.096 208.575 214.096C207.103 214.096 205.871 213.848 204.879 213.352V210.232C205.983 211 207.151 211.384 208.383 211.384C209.263 211.384 209.703 211.104 209.703 210.544C209.703 210.4 209.663 210.264 209.583 210.136C209.503 210.008 209.367 209.888 209.175 209.776C208.983 209.664 208.807 209.576 208.647 209.512C208.487 209.432 208.255 209.328 207.951 209.2C207.647 209.072 207.415 208.968 207.255 208.888C205.639 208.12 204.831 206.968 204.831 205.432C204.831 204.248 205.279 203.328 206.175 202.672C207.087 202.016 208.215 201.688 209.559 201.688C210.807 201.688 211.847 201.856 212.679 202.192ZM221.572 214V197.032H225.076V214H221.572ZM235.117 206.8V206.512C235.005 205.088 234.381 204.376 233.245 204.376C232.685 204.376 232.189 204.584 231.757 205C231.325 205.4 231.037 206 230.893 206.8H235.117ZM237.637 210.376V213.304C236.805 213.848 235.533 214.12 233.821 214.12C231.821 214.12 230.261 213.544 229.141 212.392C228.037 211.224 227.485 209.728 227.485 207.904C227.485 205.968 228.021 204.456 229.093 203.368C230.181 202.264 231.517 201.712 233.101 201.712C234.733 201.712 236.021 202.192 236.965 203.152C237.909 204.096 238.381 205.512 238.381 207.4C238.381 207.768 238.317 208.4 238.189 209.296H231.037C231.277 209.968 231.693 210.488 232.285 210.856C232.877 211.224 233.589 211.408 234.421 211.408C235.653 211.408 236.725 211.064 237.637 210.376ZM248.225 196.96V199.792C247.777 199.616 247.361 199.528 246.977 199.528C246.385 199.528 245.945 199.664 245.657 199.936C245.369 200.208 245.225 200.688 245.225 201.376V201.832H247.505V204.4H245.225V214H241.745V204.4H240.161V201.832H241.745V201.376C241.745 199.904 242.153 198.76 242.969 197.944C243.801 197.128 244.945 196.72 246.401 196.72C247.153 196.72 247.761 196.8 248.225 196.96ZM253.234 204.4V209.992C253.234 210.424 253.354 210.752 253.594 210.976C253.85 211.2 254.178 211.312 254.578 211.312C255.218 211.312 255.786 211.152 256.282 210.832V213.736C255.69 213.992 254.89 214.12 253.882 214.12C251.114 214.12 249.73 212.736 249.73 209.968V204.4H247.978V201.832H249.73V198.952H253.234V201.832H256.066V204.4H253.234Z"
    fill="#17120E"
  />
</svg>
